PathFileType	4	(X/Y/Z)	D:\MotionData\NordSprintingStudy\Test 2\Edited\COP_Right_Board_FP3000001.trc
DataRate	CameraRate	NumFrames	NumMarkers	Units	OrigDataRate	OrigDataStartFrame	OrigNumFrames
200.00	200.00	     41	5	mm	200.00	2214	     17704
Frame#	Time	M1			M2			M3			M4			M5			
		X1	Y1	Z1	X2	Y2	Z2	X3	Y3	Z3	X4	Y4	Z4	X5	Y5	Z5	

2214	11.065	1586.24878	2233.10352	45.88247	1608.65686	1913.64038	70.41752	1409.18799	1899.58179	71.38153	1010.23981	1871.19580	75.57740	987.83051	2191.04297	50.86462	
2215	11.070	1586.40076	2233.11304	45.71442	1608.63184	1913.62683	70.44704	1409.27222	1899.58362	71.27559	1010.22278	1871.20190	75.58355	987.89868	2191.05908	50.71834	
2216	11.075	1586.35205	2233.10596	45.77545	1608.70203	1913.62109	70.35694	1409.29138	1899.60376	71.27171	1010.29840	1871.19812	75.50861	987.89233	2191.05664	50.75078	
2217	11.080	1586.41736	2233.11890	45.75802	1608.66748	1913.63562	70.42188	1409.27319	1899.58838	71.28568	1010.27112	1871.19910	75.53143	987.91370	2191.05420	50.75898	
2218	11.085	1586.27783	2233.05835	45.88113	1608.68079	1913.64819	70.39172	1409.22046	1899.59460	71.34307	1010.28784	1871.18982	75.51013	987.88153	2191.04980	50.79111	
2219	11.090	1586.39697	2233.09204	45.74660	1608.71277	1913.63428	70.40018	1409.30139	1899.60339	71.27995	1010.28979	1871.19250	75.53191	987.91748	2191.05078	50.74779	
2220	11.095	1586.41809	2233.11401	45.74836	1608.71069	1913.63220	70.39689	1409.30151	1899.59937	71.26765	1010.28717	1871.20471	75.51435	987.93127	2191.04883	50.72406	
2221	11.100	1586.33008	2233.06714	45.82130	1608.68323	1913.62207	70.37978	1409.27454	1899.57153	71.31972	1010.28467	1871.19067	75.54266	987.92566	2191.03979	50.76266	
2222	11.105	1586.40369	2233.11548	45.72334	1608.66602	1913.62122	70.42973	1409.29163	1899.60486	71.25257	1010.22241	1871.17859	75.58866	987.94110	2191.06006	50.73725	
2223	11.110	1586.38013	2233.11914	45.73035	1608.70764	1913.62891	70.40687	1409.30554	1899.60522	71.29559	1010.26129	1871.21045	75.52805	987.93463	2191.07910	50.74737	
2224	11.115	1586.28394	2233.08203	45.88127	1608.71350	1913.62268	70.39751	1409.22327	1899.57422	71.35436	1010.28522	1871.20508	75.53326	987.87885	2191.06104	50.81812	
2225	11.120	1586.41431	2233.10229	45.77674	1608.66003	1913.62512	70.47159	1409.28503	1899.57458	71.30756	1010.26050	1871.17957	75.55631	987.92645	2191.04346	50.76621	
2226	11.125	1586.38428	2233.09106	45.81079	1608.69836	1913.63721	70.43233	1409.27319	1899.58826	71.34035	1010.25867	1871.19446	75.57407	987.85944	2191.02490	50.81629	
2227	11.130	1586.44971	2233.09644	45.77184	1608.63977	1913.61694	70.50713	1409.29272	1899.60291	71.32090	1010.22394	1871.18237	75.62760	987.92987	2191.04297	50.75600	
2228	11.135	1586.36584	2233.09790	45.82274	1608.68726	1913.63550	70.42435	1409.26221	1899.58032	71.34393	1010.27887	1871.21667	75.57980	987.92908	2191.05640	50.75905	
2229	11.140	1586.40393	2233.10010	45.79408	1608.64880	1913.63464	70.46946	1409.23303	1899.57568	71.33688	1010.23883	1871.20996	75.60644	987.89758	2191.04663	50.79058	
2230	11.145	1586.34314	2233.07935	45.85503	1608.70337	1913.61792	70.41809	1409.25098	1899.58984	71.35565	1010.25873	1871.17273	75.56241	987.88885	2191.04932	50.81572	
2231	11.150	1586.26538	2233.06445	45.96233	1608.68372	1913.62219	70.44542	1409.22424	1899.62585	71.31218	1010.24609	1871.19031	75.58085	987.80988	2191.03296	50.91177	
2232	11.155	1586.28955	2233.03125	45.87532	1608.62927	1913.59851	70.49969	1409.18262	1899.54834	71.37175	1010.24445	1871.18787	75.61051	987.88593	2191.03540	50.81578	
2233	11.160	1586.35669	2233.10425	45.79006	1608.64221	1913.61182	70.45437	1409.21936	1899.58459	71.34703	1010.19904	1871.17542	75.63135	987.88086	2191.04102	50.82737	
2234	11.165	1586.29749	2233.07690	45.83995	1608.65894	1913.61243	70.41664	1409.18311	1899.57629	71.34863	1010.22272	1871.18152	75.54948	987.84613	2191.05615	50.82060	
2235	11.170	1586.38037	2233.10278	45.79203	1608.63562	1913.61609	70.43690	1409.19531	1899.57239	71.35768	1010.19897	1871.17761	75.58812	987.86139	2191.03784	50.80188	
2236	11.175	1586.26392	2233.06982	45.86914	1608.65466	1913.61072	70.42915	1409.20972	1899.57898	71.35312	1010.22571	1871.18652	75.56963	987.85217	2191.04077	50.83030	
2237	11.180	1586.30823	2233.08887	45.84908	1608.66626	1913.62268	70.42190	1409.19153	1899.56262	71.35506	1010.22314	1871.18262	75.58926	987.85309	2191.02393	50.80941	
2238	11.185	1586.28088	2233.09180	45.85206	1608.64990	1913.62781	70.41724	1409.18457	1899.63452	71.24223	1010.21558	1871.18811	75.56883	987.82605	2191.03931	50.81587	
2239	11.190	1586.28320	2233.06787	45.83334	1608.65417	1913.61414	70.41393	1409.17578	1899.57996	71.35336	1010.24048	1871.18591	75.54592	987.82611	2191.04541	50.80428	
2240	11.195	1586.27844	2233.09814	45.85176	1608.65967	1913.62097	70.42142	1409.18384	1899.57751	71.36217	1010.22479	1871.18396	75.56395	987.80914	2191.03540	50.83828	
2241	11.200	1586.31689	2233.06348	45.86181	1608.68848	1913.62732	70.40996	1409.23926	1899.58313	71.33316	1010.24634	1871.19824	75.53709	987.83276	2191.03198	50.79153	
2242	11.205	1586.31750	2233.10254	45.82172	1608.66309	1913.63037	70.40511	1409.21240	1899.57935	71.33298	1010.25824	1871.18347	75.53170	987.90631	2191.08813	50.77299	
2243	11.210	1586.37415	2233.11230	45.77215	1608.68054	1913.64233	70.42197	1409.24194	1899.59668	71.33064	1010.24414	1871.19031	75.53567	987.86432	2191.07007	50.80618	
2244	11.215	1586.37952	2233.12061	45.78284	1608.70349	1913.62683	70.41559	1409.22449	1899.57605	71.32227	1010.28534	1871.19763	75.52208	987.89844	2191.04224	50.78406	
2245	11.220	1586.38550	2233.11646	45.77918	1608.72485	1913.62048	70.37947	1409.22668	1899.59985	71.30912	1010.29480	1871.20056	75.51880	987.87903	2191.04565	50.77017	
2246	11.225	1586.39514	2233.11304	45.76427	1608.69617	1913.61938	70.41556	1409.32031	1899.58997	71.28190	1010.27039	1871.19116	75.52457	987.91571	2191.05664	50.76857	
2247	11.230	1586.46021	2233.12500	45.72913	1608.71094	1913.61853	70.41166	1409.30200	1899.59180	71.30433	1010.29248	1871.20154	75.53241	987.94623	2191.05664	50.77517	
2248	11.235	1586.41614	2233.09644	45.77927	1608.72107	1913.63477	70.43021	1409.28198	1899.59338	71.31786	1010.26343	1871.19116	75.53581	987.92523	2191.07275	50.76646	
2249	11.240	1586.39050	2233.08496	45.80734	1608.70483	1913.62744	70.42454	1409.26636	1899.58826	71.32601	1010.29352	1871.20715	75.53325	987.91278	2191.08374	50.79676	
2250	11.245	1586.33716	2233.07739	45.84336	1608.72656	1913.62891	70.43063	1409.27002	1899.59900	71.36043	1010.27582	1871.19019	75.53163	987.88995	2191.06030	50.82903	
2251	11.250	1586.30945	2233.07300	45.84475	1608.71655	1913.62964	70.40553	1409.26978	1899.60583	71.33205	1010.26117	1871.17529	75.56007	987.89288	2191.05298	50.80807	
2252	11.255	1586.29578	2233.08667	45.85624	1608.66577	1913.62769	70.43804	1409.26917	1899.57922	71.32671	1010.26862	1871.20837	75.52488	987.88818	2191.05542	50.79274	
2253	11.260	1586.33496	2233.07349	45.81024	1608.63623	1913.63794	70.45670	1409.22083	1899.58105	71.31837	1010.23749	1871.20227	75.55717	987.94928	2191.06079	50.71630	
2254	11.265	1586.38184	2233.10229	45.77085	1608.62500	1913.62231	70.50770	1409.31396	1899.59656	71.27922	1010.21112	1871.17712	75.60905	987.93213	2191.06519	50.71262	
